<svg xmlns="http://www.w3.org/2000/svg" width="29.974" height="25.898" viewBox="0 0 29.974 25.898">
  <path id="Tracciato_60770" data-name="Tracciato 60770" d="M15.994,8.452a6.818,6.818,0,0,1,6.815,6.815,6.615,6.615,0,0,1-.491,2.494l3.98,3.98a16.107,16.107,0,0,0,4.675-6.474A16.121,16.121,0,0,0,15.98,5.045,15.873,15.873,0,0,0,10.555,6L13.5,8.943A6.615,6.615,0,0,1,15.994,8.452ZM2.363,4.731,5.471,7.839l.627.627a16.089,16.089,0,0,0-5.1,6.8,16.113,16.113,0,0,0,20.964,9.078l.572.572L26.53,28.9l1.731-1.731L4.094,3ZM9.9,12.269l2.113,2.113a3.845,3.845,0,0,0-.109.886,4.084,4.084,0,0,0,4.089,4.089,3.845,3.845,0,0,0,.886-.109l2.113,2.113A6.771,6.771,0,0,1,9.9,12.269Zm5.875-1.063L20.069,15.5l.027-.218a4.084,4.084,0,0,0-4.089-4.089Z" transform="translate(-1 -3)" fill="#006cb4"/>
</svg>
