<?xml version="1.0" encoding="utf-8"?>
<!-- Generator: Adobe Illustrator 26.2.1, SVG Export Plug-In . SVG Version: 6.00 Build 0)  -->
<svg version="1.1" id="Livello_1" xmlns="http://www.w3.org/2000/svg" xmlns:xlink="http://www.w3.org/1999/xlink" x="0px" y="0px"
	 viewBox="0 0 384 512" style="enable-background:new 0 0 384 512;" xml:space="preserve">
<style type="text/css">
	.st0{fill:#008000;}
	.st1{font-family:'MyriadPro-Bold';}
	.st2{font-size:125.3548px;}
</style>
<path class="st0" d="M217.3,101.3V0H78C57,0,40,17,40,38v329.3c0,21,17,38,38,38h228c21,0,38-17,38-38V126.7H243.4
	C228.7,126.7,217.3,115.3,217.3,101.3z M255.4,209.3l-38.1,63l38.8,63c5.2,8.5-0.9,19.3-10.8,19.3h-20.9c-4.4,0-8.5-2.3-10.8-6
	L192,313.5l-21.6,35.1c-2.3,3.7-6.4,6-10.8,6h-21c-9.9,0-16-10.9-10.8-19.3l38.8-63l-38.8-63c-5.2-8.5,0.9-19.3,10.8-19.3h20.9
	c4.4,0,8.5,2.3,10.8,6l21.6,35.1l21.6-35.1c2.3-3.7,6.4-6,10.8-6h20.9C255.3,190,261.4,200.8,255.4,209.3z M242.7,0v101.3H344
	L242.7,0z"/>
<text transform="matrix(1 0 0 1 40.3945 502.4369)" class="st0 st1 st2">ISTAT</text>
</svg>
