<svg xmlns="http://www.w3.org/2000/svg" width="31.254" height="35.757" viewBox="0 0 31.254 35.757">
  <g id="Raggruppa_20698" data-name="Raggruppa 20698" transform="translate(-1406 -1001.122)">
    <path id="Tracciato_60898" data-name="Tracciato 60898" d="M11.377,6.908V0H1.219A1.216,1.216,0,0,0,0,1.219V24.786a1.216,1.216,0,0,0,1.219,1.219H18.285A1.216,1.216,0,0,0,19.5,24.786V8.127H12.6A1.223,1.223,0,0,1,11.377,6.908Zm3.251,11.987a.611.611,0,0,1-.609.609H5.485a.611.611,0,0,1-.609-.609v-.406a.611.611,0,0,1,.609-.609h8.533a.611.611,0,0,1,.609.609Zm0-3.251a.611.611,0,0,1-.609.609H5.485a.611.611,0,0,1-.609-.609v-.406a.611.611,0,0,1,.609-.609h8.533a.611.611,0,0,1,.609.609Zm0-3.657v.406a.611.611,0,0,1-.609.609H5.485a.611.611,0,0,1-.609-.609v-.406a.611.611,0,0,1,.609-.609h8.533A.611.611,0,0,1,14.628,11.987Zm4.876-5.8V6.5H13V0h.31a1.218,1.218,0,0,1,.863.356l4.972,4.978A1.215,1.215,0,0,1,19.5,6.191Z" transform="translate(1417.75 1010.874)" fill="#006cb4"/>
    <g id="Raggruppa_20643" data-name="Raggruppa 20643" transform="translate(1406 1001.122)">
      <g id="Raggruppa_20636" data-name="Raggruppa 20636">
        <path id="Tracciato_60897" data-name="Tracciato 60897" d="M9.752,0A9.752,9.752,0,1,1,0,9.752,9.752,9.752,0,0,1,9.752,0Z" fill="red"/>
        <path id="Tracciato_60902" data-name="Tracciato 60902" d="M19.161,10.178l-3.53,3.53-3.53-3.53L10.178,12.1l3.53,3.53-3.53,3.53L12.1,21.083l3.53-3.53,3.53,3.53,1.922-1.922-3.53-3.53,3.53-3.53Z" transform="translate(-5.879 -5.879)" fill="#fff"/>
      </g>
    </g>
  </g>
</svg>
