<svg id="Componente_167_8" data-name="Componente 167 – 8" xmlns="http://www.w3.org/2000/svg" width="31.254" height="35.757" viewBox="0 0 31.254 35.757">
  <path id="Tracciato_60331" data-name="Tracciato 60331" d="M11.377,6.908V0H1.219A1.216,1.216,0,0,0,0,1.219V24.786a1.216,1.216,0,0,0,1.219,1.219H18.285A1.216,1.216,0,0,0,19.5,24.786V8.127H12.6A1.223,1.223,0,0,1,11.377,6.908Zm3.251,11.987a.611.611,0,0,1-.609.609H5.485a.611.611,0,0,1-.609-.609v-.406a.611.611,0,0,1,.609-.609h8.533a.611.611,0,0,1,.609.609Zm0-3.251a.611.611,0,0,1-.609.609H5.485a.611.611,0,0,1-.609-.609v-.406a.611.611,0,0,1,.609-.609h8.533a.611.611,0,0,1,.609.609Zm0-3.657v.406a.611.611,0,0,1-.609.609H5.485a.611.611,0,0,1-.609-.609v-.406a.611.611,0,0,1,.609-.609h8.533A.611.611,0,0,1,14.628,11.987Zm4.876-5.8V6.5H13V0h.31a1.218,1.218,0,0,1,.863.356l4.972,4.978A1.215,1.215,0,0,1,19.5,6.191Z" transform="translate(11.75 9.752)" fill="#006cb4"/>
  <g id="Raggruppa_20642" data-name="Raggruppa 20642">
    <g id="Raggruppa_20636" data-name="Raggruppa 20636">
      <path id="Tracciato_60897" data-name="Tracciato 60897" d="M9.752,0A9.752,9.752,0,1,1,0,9.752,9.752,9.752,0,0,1,9.752,0Z" fill="#009f3d"/>
      <path id="Tracciato_60903" data-name="Tracciato 60903" d="M17.835,9.606l-6.678,6.678L7.518,12.656,6.089,14.085l5.067,5.067,8.107-8.107Z" transform="translate(-3.032 -4.627)" fill="#fff"/>
    </g>
  </g>
</svg>
