<svg xmlns="http://www.w3.org/2000/svg" width="31.254" height="35.879" viewBox="0 0 31.254 35.879">
  <g id="Raggruppa_20699" data-name="Raggruppa 20699" transform="translate(-1406 -1141)">
    <path id="Tracciato_60899" data-name="Tracciato 60899" d="M11.377,6.908V0H1.219A1.216,1.216,0,0,0,0,1.219V24.786a1.216,1.216,0,0,0,1.219,1.219H18.285A1.216,1.216,0,0,0,19.5,24.786V8.127H12.6A1.223,1.223,0,0,1,11.377,6.908Zm3.251,11.987a.611.611,0,0,1-.609.609H5.485a.611.611,0,0,1-.609-.609v-.406a.611.611,0,0,1,.609-.609h8.533a.611.611,0,0,1,.609.609Zm0-3.251a.611.611,0,0,1-.609.609H5.485a.611.611,0,0,1-.609-.609v-.406a.611.611,0,0,1,.609-.609h8.533a.611.611,0,0,1,.609.609Zm0-3.657v.406a.611.611,0,0,1-.609.609H5.485a.611.611,0,0,1-.609-.609v-.406a.611.611,0,0,1,.609-.609h8.533A.611.611,0,0,1,14.628,11.987Zm4.876-5.8V6.5H13V0h.31a1.218,1.218,0,0,1,.863.356l4.972,4.978A1.215,1.215,0,0,1,19.5,6.191Z" transform="translate(1417.75 1150.873)" fill="#006cb4"/>
    <g id="Alert" transform="translate(1405.875 1140.875)">
      <path id="Tracciato_60900" data-name="Tracciato 60900" d="M10,0A10,10,0,1,1,0,10,10,10,0,0,1,10,0Z" transform="translate(0.125 0.125)" fill="#f8e60e"/>
      <path id="Tracciato_60904" data-name="Tracciato 60904" d="M14.267,19.72h2.726v2.726H14.267Zm0-10.9h2.726v8.178H14.267Z" transform="translate(-5.508 -5.506)" fill="#fff"/>
    </g>
    <path id="Tracciato_60901" data-name="Tracciato 60901" d="M13350,12643.437" transform="translate(-11934 -11498)" fill="none" stroke="#707070" stroke-width="1"/>
  </g>
</svg>
