<svg xmlns="http://www.w3.org/2000/svg" width="22" height="15" viewBox="0 0 22 15"><defs><style>.a,.c{fill:#006cb4;}.a,.b{fill-rule:evenodd;}.b{fill:#29c5ff;}</style></defs><g transform="translate(-658.37 -740.277)"><g transform="translate(658.37 740.277)"><path class="a" d="M876.54,745.1l-1.318-4.826-2.65,5.15-.128,5.024,1.317,4.826,2.835-6.5Z" transform="translate(-865.572 -740.277)"/><path class="a" d="M1127.539,740.277l-2.937,5.748.095,4.426,1.382,4.826h5.555Z" transform="translate(-1109.634 -740.277)"/><path class="a" d="M668.021,740.277l-4.1,15H658.37l4.1-15Z" transform="translate(-658.37 -740.277)"/><path class="b" d="M923.132,740.277l-4.1,15h-5.555l4.1-15Z" transform="translate(-905.291 -740.277)"/></g><g transform="translate(668.27 747.617)"><path class="c" d="M972.877,973.223h-6.141c1.536.215,4.761,1.443,5.375,3.316" transform="translate(-966.736 -973.223)"/></g></g></svg>